<svg xmlns="http://www.w3.org/2000/svg"  viewBox="0 0 50 50" width="25px" height="25px"><path d="M 25 8 C 15.611 8 8 15.611 8 25 C 8 34.389 15.611 42 25 42 C 34.389 42 42 34.389 42 25 C 42 15.611 34.389 8 25 8 z M 25 9 C 33.837 9 41 16.163 41 25 C 41 33.837 33.837 41 25 41 C 16.163 41 9 33.837 9 25 C 9 16.163 16.163 9 25 9 z M 25 11 C 24.724 11 24.5 11.224 24.5 11.5 L 24.5 24.5 L 13.5 24.5 C 13.224 24.5 13 24.724 13 25 C 13 25.276 13.224 25.5 13.5 25.5 L 25 25.5 C 25.276 25.5 25.5 25.276 25.5 25 L 25.5 11.5 C 25.5 11.224 25.276 11 25 11 z"/></svg>